# xmcd
#
# Track frame offsets:
#	150
#	21910
#	37127
#	50262
#	70522
#	85874
#	99101
#	116954
#	130335
#	143832
#	156673
#	170872
#	190449
#	203621
#	222201
#	235640
#	253987
#	274556
#	291307
#	305334
#
# Disc length: 4308
#
# Revision: 3
# Processed by: cddbd v1.5.1PL0 Copyright (c) Steve Scherf et al.
# Submitted via: FreeRIP 2.70 
# Normalized: r2:TDELIM( - )
#
DISCID=2d10d214
DTITLE=Promo Only Country March 2004
DYEAR=2004
DGENRE=Country
TTITLE0=Kenny Chesney ft. Uncle Kracker - When The Sun Goes Down
TTITLE1=Shania Twain - It Only Hurts When I'm Breathing
TTITLE2=Scotty Emerick - The Coast Is Clear
TTITLE3=Alan Jackson - Remember When
TTITLE4=SheDaisy - Passenger Seat
TTITLE5=Brooks and Dunn - That's What She Gets For Loving Me
TTITLE6=Andy Griggs - She Thinks She Needs Me
TTITLE7=Lee Ann Womack - The Wrong Girl
TTITLE8=Montgomery Gentry - If You Ever Stop Loving Me
TTITLE9=Zona Jones - House Of Negotiable Affections
TTITLE10=Hank Williams Jr. - Why Can't We All Just Get A Long Neck?
TTITLE11=Cross Canadian Ragweed - Sick And Tired
TTITLE12=Billy Dean - Thank God I'm A Country Boy
TTITLE13=Sherrie Austin - Drivin' Into The Sunset
TTITLE14=Donovan Chapman - Hey Hollywood
TTITLE15=Julie Roberts - Break Down Here
TTITLE16=Anne McCue - Stupid
TTITLE17=Thom Ellis - Hasta La Vista
TTITLE18=Katy Kiefer - My Song
TTITLE19=Mavericks, The - Air That I Breathe, The
EXTD=
EXTT0=
EXTT1=
EXTT2=
EXTT3=
EXTT4=
EXTT5=
EXTT6=
EXTT7=
EXTT8=
EXTT9=
EXTT10=
EXTT11=
EXTT12=
EXTT13=
EXTT14=
EXTT15=
EXTT16=
EXTT17=
EXTT18=
EXTT19=
PLAYORDER=
